<svg width="14" height="18" viewBox="0 0 14 18" fill="none" xmlns="http://www.w3.org/2000/svg">
<path d="M7 0.616943C10.3635 0.616986 13.0995 3.35301 13.0996 6.71655C13.0996 7.76275 12.7584 8.92386 12.249 10.0759C11.739 11.2293 11.0574 12.3812 10.3701 13.4099C8.99671 15.4656 7.59459 17.0392 7.47656 17.1707C7.22254 17.4536 6.77794 17.4541 6.52344 17.1707C6.40589 17.0397 5.00356 15.466 3.62988 13.4099C2.94259 12.3812 2.261 11.2293 1.75098 10.0759C1.24156 8.92384 0.900415 7.76277 0.900391 6.71655C0.900391 3.35298 3.6364 0.616943 7 0.616943ZM7 1.89722C4.34262 1.89722 2.18066 4.05914 2.18066 6.71655C2.18068 8.09603 2.94525 9.8387 3.94824 11.5164C4.92028 13.1422 6.10664 14.6898 7 15.7585C7.89357 14.6895 9.0798 13.1421 10.0518 11.5164C11.0547 9.83876 11.8193 8.09614 11.8193 6.71655C11.8193 4.0592 9.65735 1.89726 7 1.89722Z" fill="#999999" stroke="#999999" stroke-width="0.2"/>
<path d="M7 3.59814C8.71967 3.59814 10.1191 4.99663 10.1191 6.71631C10.1191 8.43606 8.71972 9.83545 7 9.83545C5.28033 9.83538 3.88184 8.43602 3.88184 6.71631C3.88192 4.99667 5.28035 3.59821 7 3.59814ZM7 4.87842C5.98661 4.87849 5.16219 5.70289 5.16211 6.71631C5.16211 7.7298 5.98653 8.55511 7 8.55518C8.0135 8.55518 8.83789 7.72984 8.83789 6.71631C8.83781 5.70285 8.01345 4.87842 7 4.87842Z" fill="#999999" stroke="#999999" stroke-width="0.2"/>
</svg>
