<svg width="15" height="15" viewBox="0 0 15 15" fill="none" xmlns="http://www.w3.org/2000/svg">
<path d="M4.68835 6.91893C4.79773 6.91893 4.9071 6.91893 5.01648 6.91893C5.12585 6.91893 5.23067 6.91893 5.33093 6.91893C5.58614 6.91893 5.83907 6.91893 6.08972 6.91893C6.34037 6.91893 6.5933 6.91893 6.84851 6.91893C6.88497 6.91893 6.91459 6.91438 6.93738 6.90526C6.96016 6.89615 6.97612 6.87336 6.98523 6.8369C7.03992 6.7093 7.11511 6.59992 7.21082 6.50878C7.30652 6.41763 7.41817 6.34471 7.54578 6.29003C7.57312 6.2718 7.59135 6.25357 7.60046 6.23534C7.60958 6.21711 7.61414 6.19432 7.61414 6.16698C7.61414 5.8024 7.61414 5.44009 7.61414 5.08007C7.61414 4.72004 7.61414 4.36229 7.61414 4.00682C7.61414 3.91568 7.60046 3.83365 7.57312 3.76073C7.54578 3.68781 7.50476 3.61945 7.45007 3.55565C7.41362 3.51008 7.37032 3.46451 7.32019 3.41893C7.27006 3.37336 7.22221 3.32323 7.17664 3.26854C7.02169 3.09537 6.92826 2.89257 6.89636 2.66014C6.86446 2.42772 6.90776 2.20669 7.02625 1.99706C7.14473 1.79654 7.3088 1.64615 7.51843 1.54589C7.72807 1.44563 7.95593 1.41828 8.20203 1.46385C8.42078 1.50031 8.6099 1.60285 8.76941 1.77147C8.92891 1.94009 9.0269 2.13833 9.06335 2.3662C9.0907 2.53938 9.08158 2.70116 9.03601 2.85155C8.99044 3.00194 8.90841 3.14094 8.78992 3.26854C8.74434 3.32323 8.69649 3.37336 8.64636 3.41893C8.59623 3.46451 8.54838 3.51464 8.50281 3.56932C8.44812 3.63313 8.40938 3.70148 8.3866 3.7744C8.36381 3.84732 8.35242 3.92935 8.35242 4.0205C8.35242 4.37596 8.35242 4.73371 8.35242 5.09374C8.35242 5.45376 8.35242 5.81151 8.35242 6.16698C8.35242 6.19432 8.35697 6.21939 8.36609 6.24217C8.3752 6.26496 8.39799 6.28091 8.43445 6.29003C8.56205 6.34471 8.67143 6.41991 8.76257 6.51561C8.85372 6.61132 8.93119 6.72297 8.995 6.85057C9.00411 6.8688 9.01778 6.88475 9.03601 6.89842C9.05424 6.9121 9.07247 6.91893 9.0907 6.91893C9.44617 6.92805 9.80392 6.93033 10.1639 6.92577C10.524 6.92121 10.8863 6.91893 11.2509 6.91893C11.2509 6.91893 11.2531 6.91893 11.2577 6.91893C11.2622 6.91893 11.2691 6.91438 11.2782 6.90526C11.2782 6.88703 11.2782 6.8688 11.2782 6.85057C11.2782 6.83234 11.2782 6.81411 11.2782 6.79589C11.2782 6.33104 11.2782 5.8662 11.2782 5.40135C11.2782 4.93651 11.2782 4.47167 11.2782 4.00682C11.2782 3.92479 11.2645 3.84732 11.2372 3.7744C11.2098 3.70148 11.1688 3.63313 11.1141 3.56932C11.0686 3.51464 11.023 3.46223 10.9774 3.4121C10.9318 3.36197 10.8863 3.31412 10.8407 3.26854C10.6766 3.09537 10.5809 2.89257 10.5536 2.66014C10.5262 2.42772 10.5718 2.21125 10.6903 2.01073C10.7997 1.80109 10.9615 1.64615 11.1757 1.54589C11.3899 1.44563 11.6154 1.41828 11.8524 1.46385C12.0712 1.50031 12.2626 1.60285 12.4266 1.77147C12.5907 1.94009 12.691 2.13833 12.7274 2.3662C12.7548 2.53938 12.7434 2.70116 12.6932 2.85155C12.6431 3.00194 12.5588 3.1455 12.4403 3.28221C12.3947 3.32779 12.3492 3.37564 12.3036 3.42577C12.258 3.4759 12.2124 3.52375 12.1669 3.56932C12.1122 3.63313 12.0712 3.70148 12.0438 3.7744C12.0165 3.84732 12.0028 3.92479 12.0028 4.00682C12.0119 4.54458 12.0142 5.08007 12.0096 5.61327C12.0051 6.14647 12.0028 6.68195 12.0028 7.21971C12.0028 7.36555 11.9686 7.47264 11.9003 7.541C11.8319 7.60936 11.7248 7.64354 11.579 7.64354C11.1688 7.64354 10.7587 7.64354 10.3485 7.64354C9.93835 7.64354 9.53276 7.64354 9.13171 7.64354C9.08614 7.64354 9.05196 7.65038 9.02918 7.66405C9.00639 7.67772 8.99044 7.70279 8.98132 7.73924C8.92664 7.86685 8.85144 7.97622 8.75574 8.06737C8.66003 8.15852 8.55294 8.23143 8.43445 8.28612C8.39799 8.29523 8.3752 8.30891 8.36609 8.32714C8.35697 8.34536 8.35242 8.36815 8.35242 8.39549C8.35242 8.76008 8.35242 9.12694 8.35242 9.49608C8.35242 9.86522 8.35242 10.2321 8.35242 10.5967C8.35242 10.6969 8.3752 10.7881 8.42078 10.8701C8.46635 10.9521 8.52559 11.0296 8.59851 11.1025C8.64408 11.1481 8.68966 11.1937 8.73523 11.2392C8.7808 11.2848 8.82182 11.3349 8.85828 11.3896C8.995 11.5719 9.06791 11.7747 9.07703 11.998C9.08614 12.2213 9.03145 12.4287 8.91296 12.6201C8.78536 12.8115 8.61674 12.9528 8.4071 13.0439C8.19747 13.1351 7.97872 13.1579 7.75085 13.1123C7.54122 13.0667 7.35665 12.9619 7.19714 12.7978C7.03764 12.6338 6.93966 12.4424 6.9032 12.2236C6.86674 12.014 6.88497 11.8249 6.95789 11.6562C7.0308 11.4876 7.14018 11.3304 7.28601 11.1846C7.34981 11.1208 7.41134 11.0547 7.47058 10.9863C7.52983 10.918 7.57312 10.8382 7.60046 10.7471C7.60046 10.7197 7.60274 10.6901 7.6073 10.6582C7.61186 10.6263 7.61414 10.5967 7.61414 10.5693C7.61414 10.2139 7.61414 9.85839 7.61414 9.50292C7.61414 9.14745 7.61414 8.78742 7.61414 8.42284C7.61414 8.38638 7.60958 8.35676 7.60046 8.33397C7.59135 8.31118 7.56401 8.29068 7.51843 8.27245C7.39994 8.21776 7.29513 8.14484 7.20398 8.0537C7.11283 7.96255 7.03536 7.85318 6.97156 7.72557C6.97156 7.70734 6.96016 7.68911 6.93738 7.67089C6.91459 7.65266 6.89408 7.64354 6.87585 7.64354C6.52039 7.64354 6.16264 7.64354 5.80261 7.64354C5.44259 7.64354 5.08484 7.64354 4.72937 7.64354C4.72026 7.64354 4.71342 7.64582 4.70886 7.65038C4.70431 7.65493 4.69747 7.65721 4.68835 7.65721C4.68835 7.67544 4.68835 7.69595 4.68835 7.71874C4.68835 7.74152 4.68835 7.76203 4.68835 7.78026C4.68835 8.22688 4.68835 8.67805 4.68835 9.13378C4.68835 9.58951 4.68835 10.0407 4.68835 10.4873C4.68835 10.6149 4.70886 10.7288 4.74988 10.8291C4.79089 10.9293 4.85697 11.0251 4.94812 11.1162C4.99369 11.1618 5.04154 11.2096 5.09167 11.2598C5.14181 11.3099 5.1851 11.3623 5.22156 11.417C5.34916 11.5993 5.41296 11.8043 5.41296 12.0322C5.41296 12.2601 5.35372 12.4652 5.23523 12.6474C5.10763 12.8297 4.93901 12.9642 4.72937 13.0508C4.51973 13.1374 4.30554 13.1579 4.08679 13.1123C3.86804 13.0667 3.68347 12.9619 3.53308 12.7978C3.38269 12.6338 3.28927 12.4424 3.25281 12.2236C3.21635 12.014 3.23002 11.8249 3.29382 11.6562C3.35763 11.4876 3.46244 11.3349 3.60828 11.1982C3.64473 11.1618 3.67891 11.1276 3.71082 11.0957C3.74272 11.0638 3.7769 11.0296 3.81335 10.9932C3.85893 10.9293 3.89539 10.8633 3.92273 10.7949C3.95007 10.7265 3.96375 10.6514 3.96375 10.5693C3.96375 10.0224 3.96375 9.47557 3.96375 8.9287C3.96375 8.38182 3.96375 7.83495 3.96375 7.28807C3.96375 6.7412 3.96375 6.19432 3.96375 5.64745C3.96375 5.10057 3.96375 4.5537 3.96375 4.00682C3.96375 3.92479 3.95007 3.84504 3.92273 3.76757C3.89539 3.69009 3.85437 3.62401 3.79968 3.56932C3.75411 3.51464 3.70626 3.46223 3.65613 3.4121C3.606 3.36197 3.55815 3.30956 3.51257 3.25487C3.35763 3.08169 3.26648 2.87889 3.23914 2.64647C3.21179 2.41405 3.25736 2.19758 3.37585 1.99706C3.48523 1.78742 3.64701 1.63247 3.86121 1.53221C4.0754 1.43195 4.30098 1.40461 4.53796 1.45018C4.75671 1.49576 4.94584 1.60057 5.10535 1.76464C5.26485 1.9287 5.36283 2.12466 5.39929 2.35253C5.42664 2.5257 5.41752 2.68749 5.37195 2.83788C5.32638 2.98827 5.24434 3.13182 5.12585 3.26854C5.08028 3.31412 5.03471 3.36197 4.98914 3.4121C4.94356 3.46223 4.89799 3.51008 4.85242 3.55565C4.79773 3.61945 4.75671 3.69009 4.72937 3.76757C4.70203 3.84504 4.68835 3.92479 4.68835 4.00682C4.68835 4.47167 4.68835 4.93651 4.68835 5.40135C4.68835 5.8662 4.68835 6.32648 4.68835 6.78221C4.68835 6.80956 4.68835 6.83234 4.68835 6.85057C4.68835 6.8688 4.68835 6.89159 4.68835 6.91893Z" fill="#F5B754"/>
</svg>
