<svg width="15" height="15" viewBox="0 0 15 15" fill="none" xmlns="http://www.w3.org/2000/svg">
<path d="M5.06543 4.0752C5.13835 4.0752 5.21126 4.0752 5.28418 4.0752C5.3571 4.0752 5.43457 4.0752 5.5166 4.0752C5.55306 4.0752 5.5804 4.07064 5.59863 4.06152C5.61686 4.05241 5.62598 4.02507 5.62598 3.97949C5.64421 3.61491 5.78776 3.28678 6.05664 2.99512C6.32552 2.70345 6.64681 2.53483 7.02051 2.48926C7.06608 2.48014 7.11393 2.47559 7.16406 2.47559C7.21419 2.47559 7.2666 2.47559 7.32129 2.47559C7.55827 2.46647 7.79753 2.46191 8.03906 2.46191C8.2806 2.46191 8.51986 2.46647 8.75684 2.47559C9.17611 2.47559 9.54069 2.62142 9.85059 2.91309C10.1605 3.20475 10.3291 3.56022 10.3564 3.97949C10.3564 4.01595 10.3656 4.04102 10.3838 4.05469C10.402 4.06836 10.4294 4.0752 10.4658 4.0752C10.5387 4.0752 10.6117 4.0752 10.6846 4.0752C10.7575 4.0752 10.8258 4.0752 10.8896 4.0752C10.8896 4.74967 10.8896 5.4196 10.8896 6.08496C10.8896 6.75033 10.8896 7.41797 10.8896 8.08789C10.8896 8.75781 10.8896 9.42773 10.8896 10.0977C10.8896 10.7676 10.8896 11.4352 10.8896 12.1006C10.4066 12.1006 9.9235 12.1006 9.44043 12.1006C8.95736 12.1006 8.47201 12.1006 7.98438 12.1006C7.49674 12.1006 7.00911 12.1006 6.52148 12.1006C6.03385 12.1006 5.54395 12.1006 5.05176 12.1006C5.05176 11.4352 5.05176 10.7699 5.05176 10.1045C5.05176 9.43913 5.05404 8.77148 5.05859 8.10156C5.06315 7.43164 5.06543 6.76172 5.06543 6.0918C5.06543 5.42188 5.06543 4.74967 5.06543 4.0752ZM9.24902 4.0752C9.25814 3.93848 9.21029 3.81999 9.10547 3.71973C9.00065 3.61947 8.87533 3.56934 8.72949 3.56934C8.4834 3.56934 8.23958 3.56706 7.99805 3.5625C7.75651 3.55794 7.51725 3.56022 7.28027 3.56934C7.22559 3.56934 7.1709 3.57845 7.11621 3.59668C7.06152 3.61491 7.01139 3.6377 6.96582 3.66504C6.8929 3.7015 6.83594 3.75391 6.79492 3.82227C6.75391 3.89062 6.72884 3.97493 6.71973 4.0752C7.14811 4.0752 7.57194 4.0752 7.99121 4.0752C8.41048 4.0752 8.82975 4.0752 9.24902 4.0752ZM12.0107 12.1006C12.0107 11.4352 12.0107 10.7676 12.0107 10.0977C12.0107 9.42773 12.0107 8.76009 12.0107 8.09473C12.0107 7.42936 12.0107 6.76172 12.0107 6.0918C12.0107 5.42188 12.0107 4.75423 12.0107 4.08887C12.029 4.07975 12.0472 4.0752 12.0654 4.0752C12.0837 4.0752 12.1019 4.0752 12.1201 4.0752C12.2751 4.08431 12.4255 4.08659 12.5713 4.08203C12.7171 4.07747 12.863 4.08887 13.0088 4.11621C13.2458 4.16178 13.4417 4.28483 13.5967 4.48535C13.7516 4.68587 13.8291 4.90918 13.8291 5.15527C13.8291 5.72038 13.8291 6.29004 13.8291 6.86426C13.8291 7.43848 13.8291 8.0127 13.8291 8.58691C13.8291 9.16113 13.8291 9.73307 13.8291 10.3027C13.8291 10.8724 13.8291 11.4443 13.8291 12.0186C13.8291 12.0277 13.8291 12.0413 13.8291 12.0596C13.8291 12.0778 13.8291 12.0915 13.8291 12.1006C13.5283 12.1006 13.2253 12.1006 12.9199 12.1006C12.6146 12.1006 12.3115 12.1006 12.0107 12.1006ZM3.94434 12.1143C3.64355 12.1143 3.34277 12.1143 3.04199 12.1143C2.74121 12.1143 2.43587 12.1143 2.12598 12.1143C2.12598 12.096 2.12598 12.0755 2.12598 12.0527C2.12598 12.0299 2.12598 12.0094 2.12598 11.9912C2.12598 11.4261 2.12598 10.861 2.12598 10.2959C2.12598 9.73079 2.12598 9.16569 2.12598 8.60059C2.12598 8.03548 2.12598 7.4681 2.12598 6.89844C2.12598 6.32878 2.12598 5.76139 2.12598 5.19629C2.12598 4.89551 2.22168 4.6403 2.41309 4.43066C2.60449 4.22103 2.85514 4.1071 3.16504 4.08887C3.29264 4.07975 3.42025 4.07747 3.54785 4.08203C3.67546 4.08659 3.80762 4.08887 3.94434 4.08887C3.94434 4.75423 3.94434 5.42188 3.94434 6.0918C3.94434 6.76172 3.94434 7.42936 3.94434 8.09473C3.94434 8.76009 3.94434 9.42773 3.94434 10.0977C3.94434 10.7676 3.94434 11.4398 3.94434 12.1143Z" fill="#F5B754"/>
</svg>
