<svg width="20" height="20" viewBox="0 0 20 20" fill="none" xmlns="http://www.w3.org/2000/svg">
<path d="M16.5938 4.90039C17.4109 4.90039 18.0996 5.49341 18.0996 6.25V13.75C18.0996 14.5064 17.4113 15.0996 16.5938 15.0996H3.40625C2.58918 15.0996 1.90039 14.5067 1.90039 13.75V6.25C1.90039 5.4936 2.58874 4.90039 3.40625 4.90039H16.5938ZM11.0938 11.8604C10.798 12.1239 10.3966 12.2529 10 12.2529C9.60344 12.2529 9.20204 12.124 8.90625 11.8604L7.63184 10.7236L3.88477 14.0664H16.1152L12.3672 10.7236L11.0938 11.8604ZM3.03711 13.374L6.82031 10L3.03711 6.625V13.374ZM13.1787 10L16.9629 13.374V6.625L13.1787 10ZM9.70312 11.1221C9.77172 11.1832 9.88154 11.2197 10 11.2197C10.1185 11.2197 10.2283 11.1832 10.2969 11.1221C10.5027 10.9385 15.0403 6.8922 16.1152 5.93359H3.88477L9.70312 11.1221Z" fill="#999999" stroke="#999999" stroke-width="0.2"/>
</svg>
