<svg width="14" height="15" viewBox="0 0 14 15" fill="none" xmlns="http://www.w3.org/2000/svg">
<path d="M12.5374 1.84668C12.5374 2.75814 12.5374 3.66732 12.5374 4.57422C12.5374 5.48112 12.5374 6.38574 12.5374 7.28809C12.5374 8.19043 12.5374 9.09505 12.5374 10.002C12.5374 10.9089 12.5374 11.818 12.5374 12.7295C12.501 12.7295 12.4645 12.7295 12.4281 12.7295C12.3916 12.7295 12.3597 12.7295 12.3324 12.7295C11.6579 12.7295 10.9857 12.7295 10.3158 12.7295C9.64583 12.7295 8.97591 12.7295 8.30599 12.7295C7.63607 12.7295 6.96387 12.7295 6.28939 12.7295C5.61491 12.7295 4.94499 12.7295 4.27962 12.7295C4.22494 12.7295 4.18164 12.7204 4.14974 12.7021C4.11784 12.6839 4.08822 12.652 4.06087 12.6064C3.85124 12.2236 3.63932 11.8408 3.42513 11.458C3.21094 11.0752 2.99674 10.6901 2.78255 10.3027C2.56836 9.91536 2.35417 9.53027 2.13997 9.14746C1.92578 8.76465 1.71387 8.38184 1.50423 7.99902C1.486 7.97168 1.47461 7.93978 1.47005 7.90332C1.46549 7.86686 1.46777 7.83952 1.47689 7.82129C1.66829 7.37467 1.85742 6.93034 2.04427 6.48828C2.23112 6.04622 2.43392 5.611 2.65267 5.18262C2.88965 4.736 3.15853 4.33496 3.45931 3.97949C3.76009 3.62402 4.09505 3.31185 4.46419 3.04297C4.83333 2.77409 5.23437 2.5485 5.66732 2.36621C6.10026 2.18392 6.56738 2.0472 7.06868 1.95605C7.26009 1.9196 7.4515 1.89225 7.6429 1.87402C7.83431 1.85579 8.03027 1.84668 8.23079 1.84668C8.9235 1.84668 9.61621 1.84668 10.3089 1.84668C11.0016 1.84668 11.6943 1.84668 12.387 1.84668C12.4053 1.84668 12.4281 1.84668 12.4554 1.84668C12.4827 1.84668 12.5101 1.84668 12.5374 1.84668ZM11.9085 2.48926C11.8812 2.48926 11.8607 2.48926 11.847 2.48926C11.8333 2.48926 11.8174 2.48926 11.7992 2.48926C11.1794 2.48926 10.5618 2.48926 9.94662 2.48926C9.33138 2.48926 8.71842 2.49382 8.10775 2.50293C7.97103 2.50293 7.83203 2.50521 7.69075 2.50977C7.54948 2.51432 7.41048 2.53027 7.27376 2.55762C6.79069 2.64876 6.3418 2.78092 5.92708 2.9541C5.51237 3.12728 5.12956 3.34603 4.77865 3.61035C4.42773 3.87467 4.111 4.18457 3.82845 4.54004C3.5459 4.89551 3.29525 5.29199 3.0765 5.72949C2.92155 6.06673 2.77116 6.40625 2.62533 6.74805C2.47949 7.08984 2.3291 7.42936 2.17415 7.7666C2.16504 7.79395 2.16276 7.82585 2.16732 7.8623C2.17188 7.89876 2.18327 7.93066 2.2015 7.95801C2.38379 8.29525 2.56836 8.63249 2.75521 8.96973C2.94206 9.30697 3.12891 9.64193 3.31576 9.97461C3.5026 10.3073 3.68945 10.6423 3.8763 10.9795C4.06315 11.3167 4.24772 11.654 4.43001 11.9912C4.45736 12.0368 4.4847 12.0664 4.51204 12.0801C4.53939 12.0938 4.57585 12.1006 4.62142 12.1006C5.22298 12.1006 5.81999 12.1006 6.41243 12.1006C7.00488 12.1006 7.59961 12.1006 8.19661 12.1006C8.79362 12.1006 9.38835 12.1006 9.98079 12.1006C10.5732 12.1006 11.1702 12.1006 11.7718 12.1006C11.79 12.1006 11.8105 12.1006 11.8333 12.1006C11.8561 12.1006 11.8812 12.1006 11.9085 12.1006C11.9085 11.2985 11.9085 10.4987 11.9085 9.70117C11.9085 8.90365 11.9085 8.10384 11.9085 7.30176C11.9085 6.49967 11.9085 5.69759 11.9085 4.89551C11.9085 4.09342 11.9085 3.29134 11.9085 2.48926ZM2.98079 7.53418C3.01725 7.45215 3.05143 7.3724 3.08333 7.29492C3.11523 7.21745 3.14941 7.1377 3.18587 7.05566C3.27702 6.84603 3.37044 6.63867 3.46615 6.43359C3.56185 6.22852 3.65527 6.02116 3.74642 5.81152C4.03809 5.13704 4.43913 4.59473 4.94954 4.18457C5.45996 3.77441 6.06608 3.47819 6.7679 3.2959C6.98665 3.2321 7.20768 3.1888 7.43099 3.16602C7.6543 3.14323 7.87988 3.13184 8.10775 3.13184C8.60905 3.13184 9.11263 3.13184 9.61849 3.13184C10.1243 3.13184 10.6279 3.13184 11.1292 3.13184C11.1475 3.13184 11.168 3.13184 11.1908 3.13184C11.2135 3.13184 11.234 3.13184 11.2523 3.13184C11.2523 3.49642 11.2523 3.86328 11.2523 4.23242C11.2523 4.60156 11.2523 4.9707 11.2523 5.33984C11.2523 5.70898 11.2523 6.07585 11.2523 6.44043C11.2523 6.80501 11.2523 7.1696 11.2523 7.53418C10.5687 7.53418 9.88281 7.53418 9.19466 7.53418C8.50651 7.53418 7.81608 7.53418 7.12337 7.53418C6.43066 7.53418 5.74023 7.53418 5.05208 7.53418C4.36393 7.53418 3.6735 7.53418 2.98079 7.53418ZM10.637 3.76074C10.6097 3.76074 10.5846 3.76074 10.5618 3.76074C10.5391 3.76074 10.514 3.76074 10.4867 3.76074C10.1038 3.76074 9.71875 3.75846 9.33138 3.75391C8.94401 3.74935 8.55892 3.75163 8.17611 3.76074C8.01204 3.76074 7.84798 3.76758 7.68392 3.78125C7.51986 3.79492 7.35579 3.81543 7.19173 3.84277C6.74512 3.9248 6.32812 4.07064 5.94075 4.28027C5.55339 4.48991 5.20475 4.77246 4.89486 5.12793C4.67611 5.39225 4.49837 5.67708 4.36165 5.98242C4.22494 6.28776 4.08822 6.59538 3.9515 6.90527C3.9515 6.90527 3.95378 6.90755 3.95833 6.91211C3.96289 6.91667 3.96517 6.9235 3.96517 6.93262C4.52116 6.93262 5.07715 6.93262 5.63314 6.93262C6.18913 6.93262 6.74512 6.93262 7.30111 6.93262C7.8571 6.93262 8.41309 6.93262 8.96908 6.93262C9.52507 6.93262 10.0811 6.93262 10.637 6.93262C10.637 6.40397 10.637 5.87533 10.637 5.34668C10.637 4.81803 10.637 4.28939 10.637 3.76074ZM10.4593 9.21582C10.3773 9.21582 10.2952 9.21582 10.2132 9.21582C10.1312 9.21582 10.0537 9.21582 9.98079 9.21582C9.88053 9.21582 9.7985 9.18392 9.7347 9.12012C9.6709 9.05632 9.639 8.9834 9.639 8.90137C9.639 8.81022 9.66862 8.73503 9.72787 8.67578C9.78711 8.61654 9.86686 8.58691 9.96712 8.58691C10.1312 8.58691 10.2952 8.58691 10.4593 8.58691C10.6234 8.58691 10.7874 8.58691 10.9515 8.58691C11.0426 8.58691 11.1201 8.61654 11.1839 8.67578C11.2477 8.73503 11.2796 8.81022 11.2796 8.90137C11.2796 8.99251 11.25 9.06771 11.1908 9.12695C11.1315 9.1862 11.0518 9.21582 10.9515 9.21582C10.8695 9.21582 10.7874 9.21582 10.7054 9.21582C10.6234 9.21582 10.5413 9.21582 10.4593 9.21582Z" fill="#F5B754"/>
</svg>
